<?xml version="1.0" encoding="UTF-8"?>
<svg xmlns="http://www.w3.org/2000/svg" xmlns:xlink="http://www.w3.org/1999/xlink" width="375pt" height="374.999991pt" viewBox="0 0 375 374.999991" version="1.2">
<defs>
<clipPath id="clip1">
  <path d="M 144.65625 40 L 160 40 L 160 99.503906 L 144.65625 99.503906 Z M 144.65625 40 "/>
</clipPath>
<clipPath id="clip2">
  <path d="M 211 40 L 226.40625 40 L 226.40625 99.503906 L 211 99.503906 Z M 211 40 "/>
</clipPath>
</defs>
<g id="surface1">
<rect x="0" y="0" width="375" height="374.999991" style="fill:rgb(100%,100%,100%);fill-opacity:1;stroke:none;"/>
<rect x="0" y="0" width="375" height="374.999991" style="fill:rgb(100%,100%,100%);fill-opacity:1;stroke:none;"/>
<rect x="0" y="0" width="375" height="374.999991" style="fill:rgb(0%,0%,0%);fill-opacity:1;stroke:none;"/>
<path style=" stroke:none;fill-rule:nonzero;fill:rgb(45.878601%,90.979004%,100%);fill-opacity:1;" d="M 185.121094 101.160156 L 183.878906 101.644531 L 183.878906 136.171875 L 181.074219 136.335938 L 178.214844 136.496094 L 177.945312 145.128906 L 177.675781 153.707031 L 172.824219 154.625 C 170.179688 155.109375 167.160156 155.703125 166.242188 155.917969 L 164.464844 156.296875 L 164.464844 144.320312 L 150.441406 144.320312 L 150.441406 154.515625 C 150.441406 164.710938 150.441406 164.765625 151.679688 164.929688 C 152.4375 165.035156 152.921875 165.523438 153.03125 166.277344 C 153.246094 167.625 153.675781 167.839844 154.539062 166.980469 C 155.402344 166.117188 164.03125 163.308594 169.53125 162.070312 C 175.734375 160.667969 187.332031 160.179688 193.964844 160.988281 C 201.621094 161.90625 208.148438 163.742188 216.667969 167.355469 C 217.101562 167.519531 217.316406 167.140625 217.316406 166.277344 C 217.316406 165.253906 217.640625 164.875 218.558594 164.710938 C 219.742188 164.550781 219.742188 164.441406 219.90625 154.410156 L 220.066406 144.320312 L 213.054688 144.320312 C 206.691406 144.320312 205.992188 144.425781 205.9375 145.238281 C 205.882812 145.777344 205.828125 148.367188 205.777344 151.0625 C 205.722656 156.726562 206.476562 156.40625 197.632812 154.730469 L 192.238281 153.707031 L 191.96875 145.074219 L 191.699219 136.496094 L 188.734375 136.441406 L 185.765625 136.390625 L 185.605469 124.414062 L 185.496094 112.4375 L 187.332031 111.679688 C 189.972656 110.546875 196.285156 110.65625 202.863281 111.949219 C 209.929688 113.300781 215.96875 113.351562 221.253906 112.003906 C 225.136719 110.980469 230.046875 108.875 229.613281 108.445312 C 229.503906 108.28125 227.941406 108.445312 226.160156 108.714844 C 222.65625 109.304688 218.664062 109.035156 212.195312 107.796875 C 208.09375 106.988281 204.644531 105.636719 198.710938 102.402344 C 196.445312 101.105469 195.257812 100.890625 191.160156 100.78125 C 188.515625 100.675781 185.765625 100.890625 185.121094 101.160156 Z M 185.121094 101.160156 "/>
<path style=" stroke:none;fill-rule:nonzero;fill:rgb(45.878601%,90.979004%,100%);fill-opacity:1;" d="M 180.375 164.066406 C 173.09375 164.660156 162.84375 167.25 156.265625 170.214844 C 153.300781 171.511719 153.515625 170.863281 152.382812 181.816406 C 151.195312 192.765625 149.738281 206.738281 146.71875 234.683594 C 146.125 240.027344 145.585938 245.476562 145.480469 246.824219 L 145.316406 249.25 L 148.554688 249.089844 C 150.332031 248.980469 155.292969 248.605469 159.609375 248.28125 L 167.429688 247.632812 L 167.589844 244.664062 C 167.96875 235.765625 169.425781 231.773438 173.46875 227.832031 C 176.761719 224.652344 180.15625 223.355469 185.226562 223.355469 C 192.078125 223.410156 196.824219 226.269531 200.058594 232.3125 C 201.675781 235.386719 201.890625 236.25 202.109375 241.265625 L 202.378906 246.824219 L 205.558594 246.824219 C 207.339844 246.824219 212.300781 247.09375 216.617188 247.417969 C 220.875 247.742188 224.542969 247.902344 224.652344 247.742188 C 224.867188 247.523438 224.542969 244.125 222.710938 228.480469 C 222.441406 225.945312 221.792969 220.386719 221.363281 216.074219 C 220.929688 211.757812 220.175781 204.957031 219.742188 200.964844 C 219.3125 196.972656 218.449219 188.9375 217.855469 183.164062 C 217.261719 177.390625 216.667969 172.320312 216.507812 171.996094 C 215.96875 170.429688 204.914062 166.492188 197.363281 165.144531 C 192.292969 164.28125 184.527344 163.742188 180.375 164.066406 Z M 180.375 164.066406 "/>
<path style=" stroke:none;fill-rule:nonzero;fill:rgb(45.878601%,90.979004%,100%);fill-opacity:1;" d="M 104.4375 175.933594 C 104.222656 176.148438 104.058594 178.902344 104.058594 182.085938 L 104.058594 187.855469 L 99.90625 188.613281 C 97.585938 188.988281 95.484375 189.3125 95.160156 189.367188 C 94.890625 189.367188 94.511719 187.535156 94.351562 185.320312 L 94.082031 181.273438 L 90.574219 181.113281 C 84.375 180.84375 84.644531 180.519531 84.644531 188.34375 C 84.644531 194.65625 84.699219 195.140625 85.722656 195.410156 C 86.316406 195.570312 86.800781 196.058594 86.800781 196.433594 C 86.800781 197.40625 86.746094 197.40625 89.875 196.058594 C 95.214844 193.792969 101.199219 192.660156 108.644531 192.660156 C 112.527344 192.660156 117.109375 192.929688 118.890625 193.304688 C 122.34375 194.0625 127.898438 195.839844 129.515625 196.703125 C 130.324219 197.136719 130.808594 196.972656 131.886719 195.949219 C 133.183594 194.65625 133.238281 194.386719 133.074219 187.964844 L 132.914062 181.273438 L 123.746094 181.273438 L 123.582031 185.429688 C 123.476562 187.75 123.257812 189.636719 123.042969 189.582031 C 122.828125 189.582031 120.722656 189.152344 118.351562 188.667969 L 114.035156 187.75 L 113.765625 181.816406 L 113.496094 175.878906 L 109.183594 175.71875 C 106.753906 175.664062 104.652344 175.71875 104.4375 175.933594 Z M 104.4375 175.933594 "/>
<path style=" stroke:none;fill-rule:nonzero;fill:rgb(45.878601%,90.979004%,100%);fill-opacity:1;" d="M 256.527344 175.933594 C 256.308594 176.148438 256.148438 178.902344 256.148438 182.085938 L 256.148438 187.855469 L 251.996094 188.613281 C 249.675781 188.988281 247.574219 189.3125 247.25 189.367188 C 246.980469 189.367188 246.601562 187.535156 246.441406 185.320312 L 246.171875 181.273438 L 242.664062 181.113281 C 236.464844 180.84375 236.734375 180.519531 236.734375 188.34375 C 236.734375 194.65625 236.785156 195.140625 237.8125 195.410156 C 238.40625 195.570312 238.890625 196.058594 238.890625 196.488281 C 238.890625 197.082031 239.160156 197.191406 239.859375 196.921875 C 252.695312 191.578125 265.75 191.039062 277.9375 195.355469 C 282.628906 196.972656 282.84375 197.027344 282.84375 196.433594 C 282.84375 196.164062 283.382812 195.734375 284.085938 195.519531 C 285.273438 195.085938 285.324219 194.925781 285.164062 188.179688 L 285.003906 181.273438 L 275.832031 181.273438 L 275.5625 185.320312 C 275.242188 189.851562 275.832031 189.53125 269.902344 188.503906 C 268.121094 188.234375 266.503906 187.804688 266.289062 187.585938 C 266.070312 187.371094 265.800781 184.675781 265.75 181.542969 L 265.585938 175.878906 L 261.273438 175.71875 C 258.84375 175.664062 256.742188 175.71875 256.527344 175.933594 Z M 256.527344 175.933594 "/>
<path style=" stroke:none;fill-rule:nonzero;fill:rgb(45.878601%,90.979004%,100%);fill-opacity:1;" d="M 102.171875 195.410156 C 98.394531 195.839844 89.335938 198.699219 87.554688 199.996094 C 87.179688 200.265625 86.746094 202.316406 86.585938 204.636719 C 86.371094 206.902344 85.828125 211.808594 85.453125 215.53125 C 85.019531 219.253906 84.15625 227.023438 83.566406 232.796875 C 82.539062 242.5625 81.246094 254.699219 80.597656 260.257812 C 80.328125 262.46875 80.382812 262.578125 81.570312 262.199219 C 93.8125 258.476562 116.894531 253.511719 131.292969 251.515625 L 136.148438 250.816406 L 136.039062 248.980469 C 135.878906 246.609375 133.882812 227.5625 133.183594 221.46875 C 132.914062 218.933594 132.265625 213.214844 131.835938 208.789062 C 131.292969 203.824219 130.703125 200.425781 130.269531 199.996094 C 129.191406 198.917969 120.671875 196.164062 116.515625 195.570312 C 113.121094 195.085938 105.570312 194.976562 102.171875 195.410156 Z M 111.769531 205.5 C 112.742188 205.875 114.199219 207.007812 115.007812 207.980469 L 116.464844 209.707031 L 116.355469 218.984375 L 116.195312 228.210938 L 101.632812 228.210938 L 101.46875 219.578125 C 101.308594 209.328125 101.738281 207.925781 105.675781 205.929688 C 108.425781 204.527344 109.398438 204.472656 111.769531 205.5 Z M 111.769531 205.5 "/>
<path style=" stroke:none;fill-rule:nonzero;fill:rgb(45.878601%,90.979004%,100%);fill-opacity:1;" d="M 254.53125 195.355469 C 251.1875 195.789062 245.738281 197.351562 242.394531 198.808594 L 239.105469 200.265625 L 238.457031 206.683594 C 238.082031 210.191406 237.324219 217.476562 236.734375 222.816406 C 235.0625 238.460938 234.035156 248.171875 234.035156 248.496094 C 234.035156 248.65625 237.109375 249.25 240.9375 249.738281 C 257.066406 251.949219 274.429688 256.371094 285.164062 260.957031 C 287.320312 261.875 289.207031 262.46875 289.425781 262.308594 C 289.75 261.984375 289.371094 258.207031 287.160156 238.460938 C 286.726562 234.578125 285.972656 227.78125 285.542969 223.355469 C 284.410156 212.296875 283.113281 201.398438 282.84375 200.589844 C 282.574219 199.726562 279.664062 198.484375 274.214844 196.8125 C 270.925781 195.839844 268.335938 195.464844 263.160156 195.300781 C 259.4375 195.195312 255.554688 195.246094 254.53125 195.355469 Z M 263.859375 205.5 C 264.832031 205.875 266.289062 207.007812 267.097656 207.925781 L 268.554688 209.707031 L 268.554688 228.535156 L 261.164062 228.371094 L 253.722656 228.210938 L 253.722656 219.039062 C 253.722656 210.40625 253.773438 209.761719 254.90625 208.195312 C 256.257812 206.363281 258.953125 204.796875 260.894531 204.742188 C 261.542969 204.742188 262.890625 205.066406 263.859375 205.5 Z M 263.859375 205.5 "/>
<path style=" stroke:none;fill-rule:nonzero;fill:rgb(45.878601%,90.979004%,100%);fill-opacity:1;" d="M 178.753906 251.679688 C 136.957031 253.082031 91.0625 261.875 58.214844 274.878906 C 50.882812 277.789062 47.96875 279.085938 47.96875 279.515625 C 47.96875 279.679688 48.402344 279.679688 48.941406 279.464844 C 49.425781 279.246094 53.253906 277.898438 57.460938 276.496094 C 77.902344 269.480469 101.578125 264.84375 130.484375 262.089844 C 144.5625 260.742188 180.75 260.742188 193.75 262.089844 C 228.101562 265.652344 253.9375 273.152344 268.824219 283.777344 C 279.5 291.386719 283.921875 298.238281 283.871094 306.976562 C 283.816406 312.15625 282.304688 316.257812 278.636719 321.4375 C 274.539062 327.152344 265.316406 334.816406 257.496094 339.023438 C 252.589844 341.613281 259.921875 339.183594 267.742188 335.570312 C 290.234375 325.210938 302.90625 315.339844 309.054688 303.46875 C 310.78125 300.179688 310.835938 299.640625 310.890625 294.300781 C 310.890625 288.957031 310.78125 288.417969 309.109375 285.019531 C 301.34375 269.210938 272.273438 257.558594 229.453125 253.027344 C 222.441406 252.273438 196.390625 251.085938 191.699219 251.246094 C 190.835938 251.300781 185.011719 251.515625 178.753906 251.679688 Z M 178.753906 251.679688 "/>
<path style=" stroke:none;fill-rule:nonzero;fill:rgb(0%,0%,0%);fill-opacity:1;" d="M 238.53125 93.316406 L 238.53125 138.726562 L 175.679688 138.726562 L 175.679688 93.316406 Z M 238.53125 93.316406 "/>
<path style=" stroke:none;fill-rule:nonzero;fill:rgb(100%,100%,100%);fill-opacity:1;" d="M 185.53125 79.960938 C 179.898438 79.960938 175.3125 75.339844 175.3125 69.675781 C 175.3125 64.007812 179.898438 59.386719 185.53125 59.386719 C 191.164062 59.386719 195.75 64.003906 195.75 69.675781 C 195.75 75.34375 191.164062 79.960938 185.53125 79.960938 Z M 185.53125 62.816406 C 181.773438 62.816406 178.71875 65.894531 178.71875 69.675781 C 178.71875 73.460938 181.773438 76.53125 185.53125 76.53125 C 189.292969 76.53125 192.34375 73.460938 192.34375 69.675781 C 192.34375 65.890625 189.292969 62.816406 185.53125 62.816406 Z M 185.53125 62.816406 "/>
<g clip-path="url(#clip1)" clip-rule="nonzero">
<path style=" stroke:none;fill-rule:nonzero;fill:rgb(100%,100%,100%);fill-opacity:1;" d="M 157.835938 99.265625 C 157.398438 99.265625 156.960938 99.097656 156.628906 98.765625 C 148.90625 90.996094 144.65625 80.664062 144.65625 69.675781 C 144.65625 58.679688 148.90625 48.347656 156.628906 40.582031 C 157.292969 39.914062 158.371094 39.914062 159.035156 40.582031 C 159.699219 41.25 159.699219 42.339844 159.035156 43.007812 C 151.957031 50.132812 148.0625 59.601562 148.0625 69.675781 C 148.0625 79.746094 151.957031 89.222656 159.035156 96.34375 C 159.699219 97.007812 159.699219 98.105469 159.035156 98.769531 C 158.707031 99.097656 158.269531 99.265625 157.835938 99.265625 Z M 157.835938 99.265625 "/>
</g>
<g clip-path="url(#clip2)" clip-rule="nonzero">
<path style=" stroke:none;fill-rule:nonzero;fill:rgb(100%,100%,100%);fill-opacity:1;" d="M 213.234375 99.265625 C 212.792969 99.265625 212.363281 99.097656 212.027344 98.765625 C 211.367188 98.105469 211.367188 97.011719 212.027344 96.339844 C 219.097656 89.21875 223 79.746094 223 69.675781 C 223 59.601562 219.097656 50.128906 212.019531 43.007812 C 211.363281 42.339844 211.363281 41.25 212.019531 40.582031 C 212.683594 39.914062 213.773438 39.914062 214.429688 40.582031 C 222.15625 48.355469 226.40625 58.683594 226.40625 69.675781 C 226.40625 80.664062 222.15625 90.996094 214.429688 98.769531 C 214.105469 99.097656 213.667969 99.265625 213.234375 99.265625 Z M 213.234375 99.265625 "/>
</g>
<path style=" stroke:none;fill-rule:nonzero;fill:rgb(100%,100%,100%);fill-opacity:1;" d="M 165.0625 91.992188 C 164.625 91.992188 164.191406 91.824219 163.855469 91.492188 C 158.066406 85.667969 154.875 77.917969 154.875 69.675781 C 154.875 61.429688 158.066406 53.679688 163.851562 47.859375 C 164.515625 47.191406 165.597656 47.1875 166.265625 47.863281 C 166.929688 48.53125 166.929688 49.617188 166.265625 50.285156 C 161.117188 55.460938 158.285156 62.351562 158.285156 69.675781 C 158.285156 77.007812 161.117188 83.890625 166.265625 89.066406 C 166.929688 89.734375 166.929688 90.820312 166.265625 91.488281 C 165.933594 91.824219 165.5 91.992188 165.0625 91.992188 Z M 165.0625 91.992188 "/>
<path style=" stroke:none;fill-rule:nonzero;fill:rgb(100%,100%,100%);fill-opacity:1;" d="M 206.003906 91.992188 C 205.570312 91.992188 205.128906 91.824219 204.796875 91.492188 C 204.132812 90.824219 204.132812 89.734375 204.796875 89.070312 C 209.945312 83.890625 212.78125 77.007812 212.78125 69.675781 C 212.78125 62.339844 209.945312 55.460938 204.796875 50.285156 C 204.132812 49.617188 204.132812 48.53125 204.796875 47.863281 C 205.460938 47.1875 206.539062 47.191406 207.210938 47.859375 C 213 53.683594 216.1875 61.433594 216.1875 69.675781 C 216.1875 77.917969 212.992188 85.671875 207.210938 91.488281 C 206.882812 91.824219 206.441406 91.992188 206.003906 91.992188 Z M 206.003906 91.992188 "/>
<path style=" stroke:none;fill-rule:nonzero;fill:rgb(100%,100%,100%);fill-opacity:1;" d="M 172.285156 84.722656 C 171.847656 84.722656 171.410156 84.558594 171.078125 84.222656 C 167.222656 80.339844 165.09375 75.171875 165.09375 69.675781 C 165.09375 64.179688 167.21875 59.015625 171.078125 55.128906 C 171.742188 54.460938 172.820312 54.460938 173.484375 55.128906 C 174.148438 55.796875 174.148438 56.886719 173.484375 57.554688 C 170.273438 60.785156 168.5 65.097656 168.5 69.675781 C 168.5 74.246094 170.269531 78.554688 173.484375 81.796875 C 174.148438 82.460938 174.148438 83.554688 173.484375 84.222656 C 173.160156 84.554688 172.722656 84.722656 172.285156 84.722656 Z M 172.285156 84.722656 "/>
<path style=" stroke:none;fill-rule:nonzero;fill:rgb(100%,100%,100%);fill-opacity:1;" d="M 198.785156 84.722656 C 198.34375 84.722656 197.90625 84.558594 197.578125 84.222656 C 196.914062 83.554688 196.914062 82.460938 197.578125 81.796875 C 200.789062 78.558594 202.5625 74.246094 202.5625 69.675781 C 202.5625 65.097656 200.789062 60.789062 197.570312 57.554688 C 196.90625 56.886719 196.90625 55.796875 197.570312 55.128906 C 198.234375 54.460938 199.316406 54.460938 199.980469 55.128906 C 203.839844 59.011719 205.96875 64.179688 205.96875 69.675781 C 205.96875 75.171875 203.839844 80.332031 199.980469 84.222656 C 199.652344 84.554688 199.21875 84.722656 198.785156 84.722656 Z M 198.785156 84.722656 "/>
<path style="fill:none;stroke-width:1;stroke-linecap:round;stroke-linejoin:miter;stroke:rgb(100%,100%,100%);stroke-opacity:1;stroke-miterlimit:4;" d="M 0.499482 0.000196096 L 16.68875 0.000196096 " transform="matrix(0.00000000000000023,3.752727,-3.75,0.00000000000000023,185.621829,77.238861)"/>
</g>
</svg>
